<!-- Generator: Adobe Illustrator 21.0.2, SVG Export Plug-In  -->
<svg version="1.1"
	 xmlns="http://www.w3.org/2000/svg" xmlns:xlink="http://www.w3.org/1999/xlink" xmlns:a="http://ns.adobe.com/AdobeSVGViewerExtensions/3.0/"
	 x="0px" y="0px" width="16px" height="16px" viewBox="0 0 16 16" style="enable-background:new 0 0 16 16;" xml:space="preserve">
<style type="text/css">
	.st0{fill:#FFFFFF;}
</style>
<defs>
</defs>
<path class="st0" d="M16,0l-2.3,2.3c-1.4-1.3-3.2-2.1-5-2.2C6.8-0.1,4.9,0.4,3.4,1.5L3.2,1.6c-3,2.2-4.1,6.1-2.6,9.5
	c1.5,3.6,5.4,5.5,9.1,4.7C13.3,15,16,11.7,16,8h-2c0,2.7-2,5.2-4.6,5.8c0,0,0,0,0,0c-2.8,0.6-5.7-0.9-6.8-3.5
	c-1.1-2.6-0.3-5.6,2-7.2c2.3-1.6,5.6-1.3,7.7,0.7L10,6h6L16,0L16,0z"/>
</svg>
